# xmcd
#
# Track frame offsets:
#	150
#	13670
#	29980
#	59097
#	76351
#	99990
#	126419
#	139216
#	166011
#	201046
#	223133
#
# Disc length: 3156 seconds
#
# Revision: 1
# Processed by: cddbd v1.5.1PL0 Copyright (c) Steve Scherf et al.
# Submitted via: audiograbber 1.83.01
#
DISCID=a30c520b
DTITLE=Muddy Waters - FBS046
DYEAR=2000
DGENRE=Blues
TTITLE0=I Got My Mojo Working
TTITLE1=Corrina Corrina
TTITLE2=Howlin' Wolf
TTITLE3=Blow Wind Blow
TTITLE4=Screamin' and Cryin'
TTITLE5=Garbage Man
TTITLE6=Baby Please Don't Go
TTITLE7=Caladonia
TTITLE8=Floyd's Guitar Blues
TTITLE9=Soon Forgotten
TTITLE10=Hoochie Coochie Man
EXTD=
EXTT0=
EXTT1=
EXTT2=
EXTT3=
EXTT4=
EXTT5=
EXTT6=
EXTT7=
EXTT8=
EXTT9=
EXTT10=
PLAYORDER=
